<svg xmlns="http://www.w3.org/2000/svg" viewBox="200 190 855 850" role="img" aria-labelledby="title desc">
  <title id="title">The Baltic See lighthouse eye logo</title>
  <desc id="desc">Transparent background vector trace of the lighthouse eye logo with orange light beams and teal waves.</desc>
  <defs>
    <linearGradient id="orangeBeam" x1="220" y1="300" x2="1030" y2="300" gradientUnits="userSpaceOnUse">
      <stop offset="0" stop-color="#d57336"/>
      <stop offset="0.55" stop-color="#b75b30"/>
      <stop offset="1" stop-color="#d57336"/>
    </linearGradient>
    <linearGradient id="tealDark" x1="500" y1="210" x2="755" y2="470" gradientUnits="userSpaceOnUse">
      <stop offset="0" stop-color="#0d5e64"/>
      <stop offset="1" stop-color="#063f45"/>
    </linearGradient>
    <linearGradient id="tealBody" x1="490" y1="480" x2="775" y2="920" gradientUnits="userSpaceOnUse">
      <stop offset="0" stop-color="#6c9f98"/>
      <stop offset="0.47" stop-color="#1a6669"/>
      <stop offset="1" stop-color="#043f45"/>
    </linearGradient>
    <linearGradient id="waveGrad" x1="260" y1="880" x2="950" y2="1020" gradientUnits="userSpaceOnUse">
      <stop offset="0" stop-color="#6f9f98"/>
      <stop offset="0.55" stop-color="#4c8984"/>
      <stop offset="1" stop-color="#247172"/>
    </linearGradient>
    <linearGradient id="eyeCream" x1="545" y1="365" x2="710" y2="455" gradientUnits="userSpaceOnUse">
      <stop offset="0" stop-color="#fff2e4"/>
      <stop offset="1" stop-color="#f4e3d2"/>
    </linearGradient>
  </defs>
  <path d="M 229 279 L 229 308 L 488 382 Z" fill="url(#orangeBeam)"/>
  <path d="M 1027 279 L 767 382 L 1026 308 Z" fill="url(#orangeBeam)"/>
  <path d="M 488 434 L 228 514 L 229 541 Z" fill="url(#orangeBeam)"/>
  <path d="M 767 434 L 1027 541 L 1025 512 Z" fill="url(#orangeBeam)"/>
  <path d="M 506 336 L 750 337 L 631 248 L 631 215 L 625 215 L 623 250 Z" fill="url(#tealDark)"/>
  <path d="M 532 350 L 532 467 L 725 467 L 725 350 Z" fill="url(#tealDark)"/>
  <path d="M 509 480 L 508 504 L 534 504 L 536 507 L 492 847 L 557 858 L 701 910 L 742 920 L 774 924 L 721 510 L 722 504 L 748 504 L 748 480 Z" fill="url(#tealBody)"/>
  <path d="M 269 940 L 307 925 L 353 914 L 392 910 L 435 911 L 508 926 L 604 963 L 655 978 L 696 985 L 744 987 L 802 980 L 857 964 L 907 940 L 947 910 L 904 929 L 861 941 L 815 947 L 774 947 L 732 942 L 683 930 L 583 891 L 526 874 L 449 867 L 395 875 L 350 890 L 301 916 Z" fill="url(#waveGrad)"/>
  <path d="M 348 962 L 397 960 L 428 964 L 473 977 L 561 1013 L 609 1024 L 663 1024 L 721 1009 L 677 1007 L 627 997 L 512 954 L 467 944 L 401 945 Z" fill="url(#waveGrad)"/>
  <path d="M 547 402 L 548 418 L 567 434 L 588 445 L 619 453 L 645 452 L 666 446 L 695 430 L 709 417 L 709 401 L 698 390 L 672 374 L 641 365 L 616 365 L 592 371 L 564 386 Z" fill="url(#eyeCream)"/>
  <circle cx="627.1" cy="407.9" r="33.5" fill="url(#tealDark)"/>
</svg>